<svg id="b80dcb40-5b2a-47e4-8eb0-0477c555f69e" data-name="Layer 1" xmlns="http://www.w3.org/2000/svg" viewBox="0 0 1012.52645 1110.42001"><defs><style>.f8aac548-9ac0-432f-91f8-d6f87c63c662{fill:#17ff3b;}</style></defs><title>CRUZ2</title><path class="f8aac548-9ac0-432f-91f8-d6f87c63c662" d="M746.81,381.57V542.49c-10.35.21-20.69995,0-31,.09H660.98v1A153.82,153.82,0,0,1,590.57,672.9c0,8.95-.11,17.91.09,26.85H506.99q-42-.00009-84,0-.06006-13.58-.05-27.14a153.85014,153.85014,0,0,1-69.95-129v-1H265.67q.00009-79.46,0-158.91a292.38,292.38,0,0,0-.68,329q5.56,8.22007,11.69,16L506.96,1110.4l230.28-381.7q3.18988-4.08,6.24-8.27a292.38994,292.38994,0,0,0,3.29-338.9Zm-3.9-5.46A292.72964,292.72964,0,0,0,589.35992,268.18V376.11ZM422.35,268.9A292.76026,292.76026,0,0,0,271.08,376.1h151.3Q422.3,322.48,422.35,268.9Z" transform="translate(-0.0046 0.02003)"/><g id="b48b7c64-4c1c-4a4f-a7e1-c221ca62c565" data-name="Red Heart"><path class="f8aac548-9ac0-432f-91f8-d6f87c63c662" d="M1003.89,195.7C975.46991,85.07,886.11993,15,763.19,1.7A288.99978,288.99978,0,0,0,731.98-.02c-106.86,0-182.89,62.41-226.36,147.69-45.41-89-122.92-146.74-235.95-146.74q-11.22,0-22.91.77c-112.41,7.41-209,74.63-239.4,205.66-38.82,167.21,80.24,337,257.66,505.32,72.69,69,155.17,137.63,240.6,205.75,86.14-64.15,167.07006-130.61,237.89-198C929.71,543.38,1046.08,360,1003.89,195.7ZM715.81,542.58H590.62006q-.08,63.44,0,126.9v3.41c0,8.95-.11,17.91.09,26.85H507.04q-42,.00009-84,0-.06006-13.58-.05-27.14-.00009-16.82,0-33.63-.00009-48.2,0-96.4H265.67V376.1H422.35q-.08011-53.64,0-107.27V218.7q83.52,0,167,0V376.1H746.81V542.48C736.48,542.7,726.12994,542.52,715.81,542.58Z" transform="translate(-0.0046 0.02003)"/></g></svg>